<?xml version="1.0" encoding="utf-8"?>
<!-- Generator: Adobe Illustrator 24.3.0, SVG Export Plug-In . SVG Version: 6.00 Build 0)  -->
<svg version="1.1" id="Layer_1" xmlns="http://www.w3.org/2000/svg" xmlns:xlink="http://www.w3.org/1999/xlink" x="0px" y="0px"
	 viewBox="0 0 150 150" style="enable-background:new 0 0 150 150;" xml:space="preserve">
<style type="text/css">
	.st0{fill:#FFFFFF;}
	.st1{fill:#77C720;}
	.st2{fill:none;}
</style>
<g>
	<g>
		<path class="st0" d="M74.7,3C38.4,3,8.8,32.6,8.8,68.9c0,12.6,3.6,24.5,9.8,34.5h2.3c-6.4-10-10.1-21.8-10.1-34.5
			C10.8,33.7,39.5,5,74.7,5c35.1,0,63.8,28.7,63.9,63.9c0,12.7-3.7,24.5-10.1,34.5h2.4c6.2-10,9.8-21.9,9.8-34.5
			C140.5,32.6,110.9,3,74.7,3z"/>
	</g>
</g>
<path class="st1" d="M101.5,66.1l-12.4-8.8V56l12.4,8.8V66.1z M101.5,69.2l-12.4-8.8v-1.3l12.4,8.8V69.2z M101.5,72.2l-12.4-8.8
	v-1.3l12.4,8.8V72.2z M101.5,75.2l-12.4-8.8v-1.3l12.4,8.8V75.2z M101.5,78.3l-12.4-8.8v-1.3l12.4,8.8V78.3z M101.5,81.3l-12.4-8.8
	v-1.3l12.4,8.8V81.3z M101.5,84.4l-12.4-8.8v-1.3l12.4,8.8V84.4z M89.1,53.4l-2.7,1.5v23.8l1.2,0.2l0.6,0.1l0.4,0.4l2.7,2.6l6.8,4.8
	l2.1-0.3L89,78.6v-1.3l12.4,8.8v0.2h0.4l1-0.1l0.1,0.2V63.2L89.1,53.4z M83.9,56.3v9.9h-0.7v-9.5l-2.4,1.4v15.5h-0.5V58.4l-1.6,0.9
	v16.1h5v3l1.6,0.2V55.5L83.9,56.3L83.9,56.3z"/>
<path d="M77.4,94.3L77.4,94.3l0.1,1.2l-0.1-0.1L76.9,95v-1.1L77.4,94.3L77.4,94.3z"/>
<g>
	<path class="st0" d="M87,39.7L84,37v-6l3,2.7V39.7z M87,46.7L84,44v-5.9l3,2.7V46.7z M83.5,36.5l-2-1.7l-1.1-0.9V28l1.1,0.9l2,1.7
		V36.5z M83.5,43.5l-2-1.7l-1.1-0.9V35l1.1,0.9l2,1.7V43.5z M83.5,50.5l-2-1.7l-1.1-0.9V42l1.1,0.9l2,1.7V50.5z M79.9,33.4L79.5,33
		l-2.1-1.8l-0.5-0.4v-5.9l0.5,0.4l2.1,1.8l0.5,0.4L79.9,33.4L79.9,33.4z M79.9,40.4L79.5,40l-2.1-1.8l-0.5-0.4v-5.9l0.5,0.4l2.1,1.8
		l0.5,0.4L79.9,40.4L79.9,40.4z M79.9,47.4L79.5,47l-2.1-1.8l-0.5-0.4v-5.9l0.5,0.4l2.1,1.8l0.5,0.4L79.9,47.4L79.9,47.4z
		 M79.9,54.4L79.5,54l-2.1-1.8l-0.5-0.4v-5.9l0.5,0.4l2.1,1.8l0.5,0.4L79.9,54.4L79.9,54.4z M76.4,30.2l-1-0.9l-1.8-1.6l-0.2-0.2
		v-5.9l0.2,0.2l1.8,1.6l1,0.9V30.2z M76.4,37.2l-1-0.9l-1.8-1.6l-0.2-0.2v-5.9l0.2,0.2l1.8,1.6l1,0.9V37.2z M76.4,44.3l-1-0.9
		l-1.8-1.6l-0.2-0.2v-5.9l0.2,0.2l1.8,1.6l1,0.9V44.3z M76.4,51.3l-1-0.9l-1.8-1.6l-0.2-0.2v-5.9l0.2,0.2l1.8,1.6l1,0.9V51.3z
		 M76.4,58.3l-1-0.9l-1.8-1.6l-0.2-0.2v-5.9l0.2,0.2l1.8,1.6l1,0.9V58.3z M76.4,65.3l-1-0.9l-1.8-1.6l-0.2-0.2v-5.9l0.2,0.2l1.8,1.6
		l1,0.9V65.3z M76.4,72.3l-1-0.9l-1.8-1.6l-0.2-0.2v-5.9l0.2,0.2l1.8,1.6l1,0.9V72.3z M87.1,31.9l-3.6-3.2L79.3,25l-2.1-1.8l-2-1.8
		l-1.8-1.6L72,18.5l-12,8.7v13.4l8.3,3.4l0.8,0.3v32.8l5.7,0.8l-1.1-1l-0.2-0.2v-5.9l0.2,0.2l1.8,1.6l1,0.9v2H77V74l0,0v-1.1l0,0V67
		l0,0v-1.1l0,0V60l0,0v-1.1l0,0V53l0.5,0.4l2.1,1.8l0.5,0.4v1l0.5-0.3V56l0.1,0.1l0.7-0.4l-0.9-0.8V49l1.1,0.9l2,1.7v2.8l0.5-0.3v-2
		l1.4,1.2l0.1-0.1l0.7-0.4L84,51v-5.9l3,2.7v4.7l1-0.5V32.6L87.1,31.9"/>
</g>
<path class="st1" d="M46.3,49.6l10.4-5.8v2.4l1.2-0.8l9.2,3.8v-3.3l-10.2-4.1L46.3,49.6"/>
<path class="st1" d="M46.3,55.2l10.4-5.8v2.4l1.2-0.8l9.2,3.8v-3.3l-10.2-4.1L46.3,55.2"/>
<path class="st1" d="M46.3,60.7l10.4-5.8v2.4l1.2-0.8l9.2,3.8V57l-10.2-4.1L46.3,60.7"/>
<path class="st1" d="M46.3,66.3l10.4-5.8v2.4l1.2-0.8l9.2,3.8v-3.3l-10.2-4.1L46.3,66.3"/>
<path class="st1" d="M46.3,71.9L56.7,66v2.4l1.2-0.8l9.2,3.8V68l-10.2-4.1L46.3,71.9"/>
<path class="st1" d="M46.3,77.4l2.6-2l-0.7,0.9L46.3,77.4z"/>
<path class="st1" d="M67.1,73.6v3.3l-0.3-0.1l-8.9-3.6L56.7,74v-2.4l-5.5,3.1l-0.4-0.1l-0.6-0.1l6.8-5.1L67.1,73.6"/>
<path class="st1" d="M58.7,75.7l-2.2-0.3L57,75L58.7,75.7z"/>
<rect x="32.2" y="81.3" class="st2" width="30.5" height="20"/>
<g>
	<path class="st0" d="M61.5,93.6c-0.2-0.2-7.4-5-11-7.9l-18.3,15.6l16.9-17.8l1.4-1.4l2.3,2.4L61.5,93.6L61.5,93.6z"/>
</g>
<path class="st1" d="M82.5,86.9h-7.2v2.5l-2.9,0.3l-0.6,0.1l-0.4,0.4L66,95.4L50.5,79l-13,13.6l13-16.2l25.9,3.4V83l1.4,1.4v-7.2
	h4.3V80l5.5,0.7l6.9,6.6l-12,1.7L82.5,86.9L82.5,86.9z"/>
<path class="st0" d="M46.9,94.9v0.8h2.9V92C48.2,91.9,46.9,93.3,46.9,94.9L46.9,94.9z"/>
<path class="st0" d="M51,91.9v3.7h2.9v-0.8C53.9,93.3,52.6,91.9,51,91.9L51,91.9z"/>
<path class="st0" d="M46.9,99.8h2.9v-2.9h-2.9V99.8L46.9,99.8z"/>
<path class="st0" d="M51,99.8h2.9v-2.9H51V99.8L51,99.8z"/>
<g>
	<path class="st1" d="M117.2,108.5l-10.6-9l-4.5-3.8c-1.4,1.1-3.4,2.6-5.1,3.8c-2.1,1.4-3.8,2.6-3.9,2.7l2.6-2.7l4.6-4.8l0.8-0.9
		l1.1-1.1l1.1,1.2L117.2,108.5L117.2,108.5z"/>
</g>
<path class="st0" d="M112.8,101.4l-10.7-11.2l-2.3,2.4l-6.6,6.9l-7.2,7.6H56.6l10.8-10.3l5.3-5.1l4.5-0.5v-2.3h3.5v6l1.1-1.2V91
	L96,89l6.1-0.8L112.8,101.4L112.8,101.4z"/>
<path class="st1" d="M105.1,103.3v0.7h-2.4v-3.1C104,100.9,105.1,101.9,105.1,103.3L105.1,103.3z"/>
<path class="st1" d="M101.7,100.9v3.1h-2.4v-0.7C99.3,101.9,100.3,100.9,101.7,100.9L101.7,100.9z"/>
<path class="st1" d="M105.1,107.3h-2.4v-2.4h2.4V107.3L105.1,107.3z"/>
<path class="st1" d="M101.7,107.3h-2.4v-2.4h2.4V107.3L101.7,107.3z"/>
<path d="M66.8,76.8l0.3,0.1v-0.1H66.8z"/>
<g>
	<g transform="translate(32.317467, 104.495189)">
		<g>
			<path class="st0" d="M15.5,30.2v4.6h-1.1V33h-2.1v1.9h-1.1v-4.6h1.1V32h2.1v-1.8H15.5z"/>
		</g>
	</g>
</g>
<g>
	<g transform="translate(36.663015, 104.495189)">
		<g>
			<path class="st0" d="M15,34.9c-0.5,0-0.9-0.1-1.3-0.3c-0.4-0.2-0.7-0.5-0.9-0.9s-0.3-0.8-0.3-1.2c0-0.5,0.1-0.9,0.3-1.2
				c0.2-0.4,0.5-0.6,0.9-0.8c0.4-0.2,0.8-0.3,1.3-0.3s0.9,0.1,1.3,0.3c0.4,0.2,0.7,0.5,0.9,0.8c0.2,0.4,0.3,0.8,0.3,1.2
				s-0.1,0.8-0.3,1.2c-0.2,0.4-0.5,0.6-0.9,0.9C15.9,34.8,15.5,34.9,15,34.9z M15,34c0.3,0,0.5-0.1,0.7-0.2c0.2-0.1,0.4-0.3,0.5-0.5
				s0.2-0.5,0.2-0.8s-0.1-0.5-0.2-0.8c-0.1-0.2-0.3-0.4-0.5-0.5S15.2,31,15,31c-0.3,0-0.5,0.1-0.8,0.2c-0.2,0.1-0.4,0.3-0.5,0.5
				s-0.2,0.5-0.2,0.8s0.1,0.5,0.2,0.8c0.1,0.2,0.3,0.4,0.5,0.5C14.5,33.9,14.7,34,15,34z"/>
		</g>
	</g>
</g>
<g>
	<g transform="translate(41.185315, 104.495189)">
		<g>
			<path class="st0" d="M18.5,34.8V32l-1.3,2.3h-0.5l-1.4-2.2v2.7h-1v-4.6h0.9l1.7,2.9l1.7-2.9h0.9v4.6H18.5z"/>
		</g>
	</g>
</g>
<g>
	<g transform="translate(46.252595, 104.495189)">
		<g>
			<path class="st0" d="M19.5,34v0.9H16v-4.6h3.5v0.9H17v1h2.1V33H17v1H19.5z"/>
		</g>
	</g>
</g>
<g>
	<g transform="translate(51.69343, 104.495189)">
		<g>
			<path class="st0" d="M19.3,34.9c-0.4,0-0.7-0.1-1.1-0.1s-0.6-0.2-0.8-0.4l0.4-0.8c0.2,0.1,0.4,0.3,0.7,0.4
				c0.3,0.1,0.6,0.1,0.8,0.1c0.3,0,0.5,0,0.7-0.1c0.1-0.1,0.2-0.2,0.2-0.4c0-0.1,0-0.2-0.1-0.3s-0.2-0.1-0.3-0.2
				c-0.1,0-0.3-0.1-0.5-0.1c-0.4-0.1-0.7-0.2-0.9-0.2c-0.2-0.1-0.4-0.2-0.6-0.4s-0.2-0.4-0.2-0.8c0-0.3,0.1-0.5,0.2-0.7
				c0.2-0.2,0.4-0.4,0.7-0.5c0.3-0.1,0.6-0.2,1.1-0.2c0.3,0,0.6,0,0.9,0.1s0.5,0.2,0.8,0.3L21,31.4c-0.4-0.2-0.9-0.4-1.3-0.4
				c-0.3,0-0.5,0.1-0.7,0.1c-0.1,0.1-0.2,0.2-0.2,0.4c0,0.2,0.1,0.3,0.2,0.4c0.2,0.1,0.4,0.1,0.8,0.2c0.3,0.1,0.6,0.2,0.9,0.2
				c0.2,0.1,0.4,0.2,0.6,0.4s0.2,0.4,0.2,0.7s-0.1,0.5-0.2,0.7s-0.4,0.4-0.6,0.5S19.7,34.9,19.3,34.9z"/>
		</g>
	</g>
</g>
<g>
	<g transform="translate(55.204318, 104.495189)">
		<g>
			<path class="st0" d="M22.5,34v0.9h-3.6v-4.6h3.5v0.9H20v1h2.1V33H20v1H22.5z"/>
		</g>
	</g>
</g>
<g>
	<g transform="translate(58.877228, 104.495189)">
		<g>
			<path class="st0" d="M23.1,34.8l-0.9-1.3h-1v1.3h-1.1v-4.6h2c0.4,0,0.8,0.1,1,0.2c0.3,0.1,0.5,0.3,0.7,0.6
				c0.2,0.2,0.2,0.6,0.2,0.9c0,0.3-0.1,0.6-0.2,0.9c-0.2,0.2-0.4,0.4-0.7,0.6l1,1.5L23.1,34.8L23.1,34.8z M23.1,31.9
				c0-0.3-0.1-0.5-0.2-0.6c-0.2-0.1-0.4-0.2-0.7-0.2h-0.9v1.6h0.9c0.3,0,0.6-0.1,0.7-0.2C23,32.4,23.1,32.2,23.1,31.9z"/>
		</g>
	</g>
</g>
<g>
	<g transform="translate(62.864362, 104.495189)">
		<g>
			<path class="st0" d="M25.9,30.2l-2,4.6h-1.1l-2-4.6H22l1.4,3.3l1.4-3.3H25.9z"/>
		</g>
	</g>
</g>
<g>
	<g transform="translate(66.905505, 104.495189)">
		<g>
			<path class="st0" d="M22.8,30.2h1.1v4.6h-1.1V30.2z"/>
		</g>
	</g>
</g>
<g>
	<g transform="translate(68.894372, 104.495189)">
		<g>
			<path class="st0" d="M25.7,34.9c-0.5,0-0.9-0.1-1.3-0.3s-0.7-0.5-0.9-0.8c-0.2-0.4-0.3-0.8-0.3-1.2s0.1-0.9,0.3-1.2
				c0.2-0.4,0.5-0.6,0.9-0.8c0.4-0.2,0.8-0.3,1.3-0.3c0.4,0,0.8,0.1,1.1,0.2c0.3,0.1,0.6,0.3,0.8,0.6l-0.7,0.6
				c-0.3-0.4-0.7-0.5-1.1-0.5c-0.3,0-0.6,0.1-0.8,0.2c-0.2,0.1-0.4,0.3-0.5,0.5s-0.2,0.5-0.2,0.8s0.1,0.5,0.2,0.8
				c0.1,0.2,0.3,0.4,0.5,0.5s0.5,0.2,0.8,0.2c0.5,0,0.8-0.2,1.1-0.5l0.7,0.6c-0.2,0.3-0.5,0.5-0.8,0.6
				C26.5,34.8,26.1,34.9,25.7,34.9z"/>
		</g>
	</g>
</g>
<g>
	<g transform="translate(72.871686, 104.495189)">
		<g>
			<path class="st0" d="M28.4,34v0.9h-3.6v-4.6h3.5v0.9h-2.4v1H28V33h-2.1v1H28.4z"/>
		</g>
	</g>
</g>
<g>
	<g transform="translate(76.544596, 104.495189)">
		<g>
			<path class="st0" d="M27.6,34.9c-0.4,0-0.7-0.1-1.1-0.1s-0.6-0.2-0.8-0.4l0.4-0.8c0.2,0.1,0.4,0.3,0.7,0.4
				c0.3,0.1,0.6,0.1,0.8,0.1c0.3,0,0.5,0,0.7-0.1c0.1-0.1,0.2-0.2,0.2-0.4c0-0.1,0-0.2-0.1-0.3s-0.2-0.1-0.3-0.2
				c-0.1,0-0.3-0.1-0.5-0.1c-0.4-0.1-0.7-0.2-0.9-0.2c-0.2-0.1-0.4-0.2-0.6-0.4s-0.2-0.4-0.2-0.8c0-0.3,0.1-0.5,0.2-0.7
				c0.2-0.2,0.4-0.4,0.7-0.5c0.3-0.1,0.6-0.2,1.1-0.2c0.3,0,0.6,0,0.9,0.1s0.5,0.2,0.8,0.3L29,31.4c-0.4-0.2-0.9-0.4-1.3-0.4
				c-0.3,0-0.5,0.1-0.7,0.1c-0.1,0.1-0.2,0.2-0.2,0.4c0,0.2,0.1,0.3,0.2,0.4c0.2,0.1,0.4,0.1,0.8,0.2c0.3,0.1,0.6,0.2,0.9,0.2
				c0.2,0.1,0.4,0.2,0.6,0.4s0.2,0.4,0.2,0.7s-0.1,0.5-0.2,0.7s-0.4,0.4-0.6,0.5S28,34.9,27.6,34.9z"/>
		</g>
	</g>
</g>
<g>
	<g transform="translate(11.895135, 96.85793)">
		<g>
			<path class="st0" d="M17.4,19.2v13.1H15v-5.6H8.2v5.6H5.7V19.2h2.4v5.4h6.8v-5.4H17.4z"/>
		</g>
	</g>
</g>
<g>
	<g transform="translate(23.260595, 96.85793)">
		<g>
			<path class="st0" d="M9.5,19.2h2.4v13.1H9.5V19.2z"/>
		</g>
	</g>
</g>
<g>
	<g transform="translate(27.736623, 96.85793)">
		<g>
			<path class="st0" d="M20,25.6h2.3v5.2c-0.7,0.5-1.5,1-2.4,1.3s-1.8,0.4-2.8,0.4c-1.3,0-2.5-0.3-3.6-0.9s-1.9-1.4-2.5-2.4
				s-0.9-2.2-0.9-3.5s0.3-2.4,0.9-3.5c0.6-1,1.4-1.8,2.5-2.4s2.3-0.9,3.6-0.9c1.1,0,2.1,0.2,3,0.6s1.7,0.9,2.3,1.6l-1.5,1.5
				c-1-1-2.2-1.5-3.6-1.5c-0.9,0-1.7,0.2-2.5,0.6c-0.7,0.4-1.3,0.9-1.7,1.6s-0.6,1.5-0.6,2.4s0.2,1.7,0.6,2.4c0.4,0.7,1,1.2,1.7,1.6
				s1.5,0.6,2.4,0.6c1,0,1.9-0.2,2.7-0.7v-4C19.9,25.6,20,25.6,20,25.6z"/>
		</g>
	</g>
</g>
<g>
	<g transform="translate(38.568888, 96.85793)">
		<g>
			<path class="st0" d="M26.3,19.2v13.1h-2.4v-5.6H17v5.6h-2.4V19.2H17v5.4h6.8v-5.4H26.3z"/>
		</g>
	</g>
</g>
<g>
	<g transform="translate(53.807025, 96.85793)">
		<g>
			<path class="st0" d="M25.1,19.2c1.1,0,2.1,0.2,3,0.6c0.8,0.4,1.5,0.9,1.9,1.6c0.5,0.7,0.7,1.5,0.7,2.5c0,0.9-0.2,1.8-0.7,2.5
				c-0.5,0.6-1.1,1.2-2,1.6c-0.8,0.4-1.8,0.6-3,0.6h-3v3.8h-2.4V19.2H25.1z M25,26.5c1.1,0,1.9-0.2,2.4-0.7c0.6-0.5,0.8-1.1,0.8-1.9
				s-0.3-1.5-0.8-1.9c-0.5-0.5-1.3-0.7-2.4-0.7h-2.9v5.2H25z"/>
		</g>
	</g>
</g>
<g>
	<g transform="translate(63.993842, 96.85793)">
		<g>
			<path class="st0" d="M29.2,32.5c-1.3,0-2.5-0.3-3.6-0.9s-1.9-1.4-2.5-2.4s-0.9-2.2-0.9-3.4c0-1.3,0.3-2.4,0.9-3.5
				c0.6-1,1.4-1.8,2.5-2.4s2.3-0.9,3.6-0.9s2.5,0.3,3.6,0.9s1.9,1.4,2.5,2.4s0.9,2.2,0.9,3.5s-0.3,2.4-0.9,3.5
				c-0.6,1-1.5,1.8-2.5,2.4C31.7,32.2,30.5,32.5,29.2,32.5z M29.2,30.3c0.9,0,1.7-0.2,2.4-0.6s1.2-0.9,1.6-1.6s0.6-1.5,0.6-2.4
				s-0.2-1.7-0.6-2.4c-0.4-0.7-1-1.3-1.6-1.6c-0.7-0.4-1.5-0.6-2.4-0.6s-1.7,0.2-2.4,0.6c-0.7,0.4-1.2,0.9-1.6,1.6s-0.6,1.5-0.6,2.4
				s0.2,1.7,0.6,2.4c0.4,0.7,0.9,1.2,1.6,1.6C27.5,30.2,28.3,30.3,29.2,30.3z"/>
		</g>
	</g>
</g>
<g>
	<g transform="translate(75.808305, 96.85793)">
		<g>
			<path class="st0" d="M27,19.2h2.4v13.1H27V19.2z"/>
		</g>
	</g>
</g>
<g>
	<g transform="translate(80.284333, 96.85793)">
		<g>
			<path class="st0" d="M40.2,19.2v13.1h-2L31,23.4v8.9h-2.4V19.2h2l7.2,8.9v-8.9H40.2z"/>
		</g>
	</g>
</g>
<g>
	<g transform="translate(91.649793, 96.85793)">
		<g>
			<path class="st0" d="M35,21.2h-4.3v-2.1h11.1v2.1h-4.3v11H35V21.2z"/>
		</g>
	</g>
</g>
</svg>
